<?xml version="1.0" encoding="UTF-8"?>
<svg version="1.1" xmlns="http://www.w3.org/2000/svg" width="460" height="460">
<path d="M0 0 C151.8 0 303.6 0 460 0 C460 151.8 460 303.6 460 460 C308.2 460 156.4 460 0 460 C0 308.2 0 156.4 0 0 Z " fill="#000000" transform="translate(0,0)"/>
<path d="M0 0 C2.33944736 0.28730055 4.6739143 0.61936779 7 1 C8.33333333 6.33333333 8.33333333 6.33333333 6.8125 9.375 C5 11 5 11 1 11 C1 11.66 1 12.32 1 13 C3.31 13.33 5.62 13.66 8 14 C8 25.88 8 37.76 8 50 C5.03 50 2.06 50 -1 50 C-1.33 49.34 -1.66 48.68 -2 48 C-2.66 48.66 -3.32 49.32 -4 50 C-8.09894092 50.74860897 -11.9067188 50.78861381 -16 50 C-18.80818728 47.77708623 -20.2869614 45.10724668 -22 42 C-23.59945746 39.60305395 -25.26969754 37.30706995 -27 35 C-27.66 35 -28.32 35 -29 35 C-30.93075081 37.27752188 -32.75973389 39.56228063 -34.5625 41.9375 C-35.56342312 43.23857288 -36.56470682 44.53936846 -37.56640625 45.83984375 C-38.36949219 46.88269531 -39.17257813 47.92554688 -40 49 C-41 50 -41 50 -43.28515625 50.09765625 C-44.65994141 50.08025391 -44.65994141 50.08025391 -46.0625 50.0625 C-46.98160156 50.05347656 -47.90070312 50.04445312 -48.84765625 50.03515625 C-49.55792969 50.02355469 -50.26820312 50.01195312 -51 50 C-48.24472159 44.88890734 -44.51804181 40.62151341 -40.8125 36.1875 C-40.15830078 35.39923828 -39.50410156 34.61097656 -38.83007812 33.79882812 C-37.2230508 31.86335726 -35.61296126 29.93052593 -34 28 C-36.16524961 24.18141283 -38.62987731 20.87104107 -41.4375 17.5 C-42.95888777 15.66712674 -44.47973429 13.83380405 -46 12 C-46.75410156 11.1028125 -47.50820313 10.205625 -48.28515625 9.28125 C-50 7 -50 7 -50 5 C-46.09423588 4.45684696 -42.50428799 3.96882533 -39.13232422 6.28027344 C-37.42666141 8.06483142 -35.92402882 9.9045299 -34.4375 11.875 C-33.90576172 12.52597656 -33.37402344 13.17695313 -32.82617188 13.84765625 C-29 18.62421573 -29 18.62421573 -29 21 C-28.34 21 -27.68 21 -27 21 C-26.7525 20.46890625 -26.505 19.9378125 -26.25 19.390625 C-23.46593974 14.06610975 -20.28818809 9.20397896 -16 5 C-11.32460434 3.5919918 -7.53461317 4.48846228 -3 6 C-2.690625 5.195625 -2.38125 4.39125 -2.0625 3.5625 C-1 1 -1 1 0 0 Z " fill="#0B0B0B" transform="translate(80,204)"/>
<path d="M0 0 C4.15945828 2.92487803 7.05807161 5.92421483 8.6875 10.8125 C9.39151499 17.95652097 9.04293901 23.92063312 4.6875 29.8125 C1.0857827 33.67423433 -2.22702294 35.52078217 -7.4609375 36.015625 C-12.52474633 36.1222315 -15.99885714 35.75362013 -20.3125 32.8125 C-25.92752627 26.94224526 -27.79991787 22.3880281 -27.6328125 14.37890625 C-26.99141429 9.23989863 -24.59543156 5.43754664 -21.4375 1.4375 C-15.17991019 -3.34771573 -6.75045443 -3.99747581 0 0 Z " fill="#F2F2F2" transform="translate(155.3125,219.1875)"/>
<path d="M0 0 C3.4375 1.5 3.4375 1.5 6 3 C6 3.66 6 4.32 6 5 C6.66 5 7.32 5 8 5 C8.33 4.01 8.66 3.02 9 2 C12.55922758 -0.70501296 16.73677698 -0.38292422 21 0 C24.72014685 0.76093913 25.75337825 1.68809602 28.125 4.6875 C31.29189972 10.43656142 30.41696825 17.07665197 30.25 23.4375 C30.23195312 24.74138672 30.21390625 26.04527344 30.1953125 27.38867188 C30.14835957 30.59320909 30.08269464 33.7962189 30 37 C27.03 37 24.06 37 21 37 C20.98541748 36.19256348 20.97083496 35.38512695 20.95581055 34.55322266 C20.88153914 30.9099873 20.78480975 27.26768967 20.6875 23.625 C20.65366211 21.71847656 20.65366211 21.71847656 20.61914062 19.7734375 C20.58369141 18.56171875 20.54824219 17.35 20.51171875 16.1015625 C20.48553467 14.98088379 20.45935059 13.86020508 20.43237305 12.70556641 C20.21834839 11.36631104 20.21834839 11.36631104 20 10 C17.24443417 7.73353649 17.24443417 7.73353649 14.4375 8.125 C11.91802566 8.75499007 11.91802566 8.75499007 10.87353516 10.70214844 C9.83075687 13.44519741 9.67951897 15.70840558 9.5859375 18.640625 C9.54726562 19.71054688 9.50859375 20.78046875 9.46875 21.8828125 C9.42234375 23.54957031 9.42234375 23.54957031 9.375 25.25 C9.33632812 26.37664062 9.29765625 27.50328125 9.2578125 28.6640625 C9.16362664 31.44254548 9.07800414 34.22102334 9 37 C6.36 37 3.72 37 1 37 C0.98018066 36.29391602 0.96036133 35.58783203 0.93994141 34.86035156 C0.84459585 31.65653006 0.73495487 28.45335199 0.625 25.25 C0.5940625 24.13882813 0.563125 23.02765625 0.53125 21.8828125 C0.49257812 20.81289062 0.45390625 19.74296875 0.4140625 18.640625 C0.36693115 17.16384277 0.36693115 17.16384277 0.31884766 15.65722656 C-0.00573827 12.95217819 -0.50778192 11.26785993 -2 9 C-4.3566226 7.91194854 -4.3566226 7.91194854 -7 8 C-9.2339397 9.04513348 -9.2339397 9.04513348 -11 11 C-11.64329092 13.79556905 -11.64329092 13.79556905 -11.609375 16.98046875 C-11.64160156 18.14384766 -11.67382812 19.30722656 -11.70703125 20.50585938 C-11.72830078 22.32827148 -11.72830078 22.32827148 -11.75 24.1875 C-11.77964844 25.41404297 -11.80929688 26.64058594 -11.83984375 27.90429688 C-11.91062899 30.93626453 -11.96328413 33.96745933 -12 37 C-14.64 37 -17.28 37 -20 37 C-20 25.12 -20 13.24 -20 1 C-16.33333333 1 -12.66666667 1 -9 1 C-5.92805092 -0.53597454 -3.39755707 -0.2265038 0 0 Z " fill="#F1F1F1" transform="translate(189,217)"/>
<path d="M0 0 C3.5916941 2.51418587 5.12009886 4.61029657 6.5 8.75 C6.58315752 10.81498892 6.60735878 12.8825789 6.59765625 14.94921875 C6.59443359 16.15771484 6.59121094 17.36621094 6.58789062 18.61132812 C6.57532227 20.5052832 6.57532227 20.5052832 6.5625 22.4375 C6.55798828 23.71173828 6.55347656 24.98597656 6.54882812 26.29882812 C6.53702873 29.44926564 6.52056597 32.59960949 6.5 35.75 C3.53 35.75 0.56 35.75 -2.5 35.75 C-2.5 35.09 -2.5 34.43 -2.5 33.75 C-3.510625 34.245 -4.52125 34.74 -5.5625 35.25 C-10.21953045 37.23511803 -14.24284148 37.22242853 -19.1875 36.1875 C-22.53658012 34.10563939 -24.1387332 31.35335329 -25.5 27.75 C-26.0526061 23.7436058 -25.93238243 21.61476487 -24.125 18 C-17.96460204 12.71965889 -10.29729976 12.3727113 -2.5 12.75 C-2.77617533 10.80925139 -2.77617533 10.80925139 -3.5 8.75 C-7.25828462 6.24447692 -9.03651494 6.37804291 -13.5 6.75 C-15.96446682 7.57786944 -18.15572814 8.60178521 -20.5 9.75 C-21.77839167 7.64441372 -22.48731787 6.16851016 -22.5625 3.6875 C-21.16326519 1.13595417 -19.40890094 0.29416489 -16.73046875 -0.7109375 C-11.04202701 -2.08572727 -5.49703436 -1.96322656 0 0 Z " fill="#F6F6F6" transform="translate(117.5,218.25)"/>
<path d="M0 0 C2.12817383 1.56054688 2.12817383 1.56054688 4.20703125 3.71875 C4.95791016 4.48574219 5.70878906 5.25273437 6.48242188 6.04296875 C7.63581055 7.25919922 7.63581055 7.25919922 8.8125 8.5 C9.99489258 9.71623047 9.99489258 9.71623047 11.20117188 10.95703125 C13.14581173 12.96059959 15.07785065 14.97488402 17 17 C20.14870618 15.61829291 22.13806822 14.0448651 24.4609375 11.5234375 C25.41613281 10.51796875 25.41613281 10.51796875 26.390625 9.4921875 C27.71380774 8.08044528 29.02895121 6.66112498 30.3359375 5.234375 C35.25319362 0.09901478 35.25319362 0.09901478 39.4765625 -0.4609375 C40.30929687 -0.30882812 41.14203125 -0.15671875 42 0 C43.15710365 2.31420729 43.13253337 3.65885096 43.14526367 6.234375 C43.15164352 7.10868164 43.15802338 7.98298828 43.16459656 8.88378906 C43.16570938 9.82963867 43.1668222 10.77548828 43.16796875 11.75 C43.17296135 13.2035791 43.17296135 13.2035791 43.17805481 14.68652344 C43.1831227 16.73762537 43.18546318 18.78873556 43.18530273 20.83984375 C43.18749104 23.98711629 43.20565324 27.13403945 43.22460938 30.28125 C43.22754289 32.27083213 43.22952797 34.26041593 43.23046875 36.25 C43.23765427 37.19584961 43.24483978 38.14169922 43.25224304 39.11621094 C43.24916641 39.99051758 43.24608978 40.86482422 43.24291992 41.765625 C43.24434494 42.53680664 43.24576996 43.30798828 43.24723816 44.10253906 C43 46 43 46 41 48 C38.03 47.505 38.03 47.505 35 47 C35 36.11 35 25.22 35 14 C28.39609075 19.11255616 28.39609075 19.11255616 26 23 C25.34 23 24.68 23 24 23 C23.690625 23.9590625 23.690625 23.9590625 23.375 24.9375 C22 27 22 27 19.3125 28.125 C14.42297261 27.94048953 12.26412925 25.44932808 9 22 C7.33333333 20 5.66666667 18 4 16 C1.72683024 13.92785886 -0.63545337 11.96672006 -3 10 C-6.93939394 6.66666667 -6.93939394 6.66666667 -7.25 3.25 C-7.1675 2.5075 -7.085 1.765 -7 1 C-4.41320627 -0.29339686 -2.87367929 -0.32127761 0 0 Z " fill="#F3F3F3" transform="translate(333,207)"/>
<path d="M0 0 C3.90576412 -0.54315304 7.49571201 -1.03117467 10.86767578 1.28027344 C12.57333859 3.06483142 14.07597118 4.9045299 15.5625 6.875 C16.09423828 7.52597656 16.62597656 8.17695313 17.17382812 8.84765625 C21 13.62421573 21 13.62421573 21 16 C21.66 16 22.32 16 23 16 C23.24621094 15.45859375 23.49242188 14.9171875 23.74609375 14.359375 C26.41724068 9.33329168 29.79443696 4.83562925 34 1 C37.47089013 0.04341432 39.37964855 0.36787514 43 1 C41.63873598 3.97511677 40.06499662 6.28076706 37.92578125 8.75 C37.34119141 9.4409375 36.75660156 10.131875 36.15429688 10.84375 C34.92147537 12.28705323 33.68181074 13.72453792 32.43554688 15.15625 C31.85482422 15.8471875 31.27410156 16.538125 30.67578125 17.25 C30.13864502 17.87390625 29.60150879 18.4978125 29.0480957 19.140625 C27.78321266 20.95734554 27.78321266 20.95734554 28.25073242 23.12475586 C29.16155724 25.40434056 30.32528454 26.7676082 32 28.5625 C35.07375164 31.94937811 38.03267422 35.40398365 40.9375 38.9375 C41.70964844 39.87464844 42.48179688 40.81179687 43.27734375 41.77734375 C45 44 45 44 45 45 C41.22590975 45.48351334 37.75881785 45.66973412 34 45 C31.25034747 42.76732759 29.7323754 40.0555701 28 37 C26.39762673 34.6053919 24.73010337 32.30680449 23 30 C22.34 30 21.68 30 21 30 C19.06924919 32.27752188 17.24026611 34.56228063 15.4375 36.9375 C14.43657688 38.23857288 13.43529318 39.53936846 12.43359375 40.83984375 C11.63050781 41.88269531 10.82742187 42.92554688 10 44 C9 45 9 45 6.71484375 45.09765625 C5.34005859 45.08025391 5.34005859 45.08025391 3.9375 45.0625 C3.01839844 45.05347656 2.09929688 45.04445312 1.15234375 45.03515625 C0.44207031 45.02355469 -0.26820312 45.01195312 -1 45 C1.75527841 39.88890734 5.48195819 35.62151341 9.1875 31.1875 C9.84169922 30.39923828 10.49589844 29.61097656 11.16992188 28.79882812 C12.7769492 26.86335726 14.38703874 24.93052593 16 23 C13.83475039 19.18141283 11.37012269 15.87104107 8.5625 12.5 C7.04111223 10.66712674 5.52026571 8.83380405 4 7 C2.86884766 5.65421875 2.86884766 5.65421875 1.71484375 4.28125 C0 2 0 2 0 0 Z " fill="#F4F4F4" transform="translate(30,209)"/>
<path d="M0 0 C1.4540625 0.0309375 1.4540625 0.0309375 2.9375 0.0625 C3.2675 1.0525 3.5975 2.0425 3.9375 3.0625 C4.515 3.35125 5.0925 3.64 5.6875 3.9375 C8.72975245 5.45862622 10.67592507 7.54963896 12.9375 10.0625 C12.9375 10.7225 12.9375 11.3825 12.9375 12.0625 C13.9275 12.3925 14.9175 12.7225 15.9375 13.0625 C17.30945574 14.35605827 18.64932656 15.68548702 19.9375 17.0625 C23.08650701 15.67895656 25.09587124 14.09543109 27.43359375 11.5859375 C28.07490234 10.915625 28.71621094 10.2453125 29.37695312 9.5546875 C30.71105583 8.14103419 32.03918574 6.72172068 33.36132812 5.296875 C34.00392578 4.62914062 34.64652344 3.96140625 35.30859375 3.2734375 C35.88536865 2.65774902 36.46214355 2.04206055 37.05639648 1.40771484 C39.48793642 -0.33112812 41.01196985 -0.26714581 43.9375 0.0625 C45.49319176 1.61819176 45.07234055 3.11174917 45.08276367 5.27514648 C45.08914352 6.16954941 45.09552338 7.06395233 45.10209656 7.98545837 C45.10320938 8.95834305 45.1043222 9.93122772 45.10546875 10.93359375 C45.11046135 12.42258934 45.11046135 12.42258934 45.11555481 13.94166565 C45.1206284 16.0458225 45.122963 18.14998743 45.12280273 20.25415039 C45.1249883 23.48271883 45.14313699 26.71094527 45.16210938 29.93945312 C45.16504332 31.97916549 45.16702811 34.01887949 45.16796875 36.05859375 C45.17515427 37.02945419 45.18233978 38.00031464 45.18974304 39.00059509 C45.18666641 39.89815018 45.18358978 40.79570526 45.18041992 41.72045898 C45.18184494 42.51242172 45.18326996 43.30438446 45.18473816 44.12034607 C44.9375 46.0625 44.9375 46.0625 42.9375 48.0625 C38.38194444 47.50694444 38.38194444 47.50694444 36.9375 46.0625 C36.77861908 43.77261219 36.68611927 41.47806559 36.62109375 39.18359375 C36.60031265 38.4969313 36.57953156 37.81026886 36.55812073 37.10279846 C36.49255857 34.90197065 36.43370985 32.70102025 36.375 30.5 C36.33182108 29.01105486 36.288207 27.52212227 36.24414062 26.03320312 C36.1368707 22.37643447 36.03562228 18.71952682 35.9375 15.0625 C35.05707031 16.0009375 34.17664063 16.939375 33.26953125 17.90625 C32.09703055 19.12565073 30.92381591 20.34436526 29.75 21.5625 C29.17185547 22.18253906 28.59371094 22.80257812 27.99804688 23.44140625 C27.42763672 24.02792969 26.85722656 24.61445313 26.26953125 25.21875 C25.75108643 25.76337891 25.2326416 26.30800781 24.69848633 26.86914062 C22.20308485 28.56018768 20.90069958 28.59065778 17.9375 28.0625 C15.3503418 26.12231445 15.3503418 26.12231445 12.63671875 23.42578125 C12.1554805 22.94932663 11.67424225 22.47287201 11.17842102 21.98197937 C10.16642022 20.97337423 9.16067918 19.95845414 8.16088867 18.93774414 C6.6298669 17.379952 5.07401209 15.85062661 3.51367188 14.32226562 C2.53224704 13.33753663 1.55237442 12.35125766 0.57421875 11.36328125 C-0.31563721 10.46778564 -1.20549316 9.57229004 -2.12231445 8.6496582 C-4.0625 6.0625 -4.0625 6.0625 -4.41479492 3.29370117 C-3.86994658 -0.15700497 -3.6140557 0.07375624 0 0 Z " fill="#FBFBFB" transform="translate(256.0625,206.9375)"/>
<path d="M0 0 C2.5 0.125 2.5 0.125 3.5 1.125 C3.47679449 2.91604361 3.44749661 4.70727127 3.38330078 6.49731445 C3.1506906 13.69299017 3.03804876 19.13659175 7.5 25.125 C12.50705594 28.38523342 16.56326683 28.47546012 22.3125 28.25 C25.04458183 28.17278405 27.76609783 28.13092395 30.5 28.125 C31.5 29.125 31.5 29.125 31.875 31.5 C31.5 34.125 31.5 34.125 29.25 35.875 C23.79666824 38.35378716 18.437559 38.89984274 12.5 38.125 C5.08331801 35.30572499 -0.99121369 30.30965768 -4.5 23.125 C-6.84668729 16.08493814 -6.85420689 10.18762067 -4.5 3.125 C-3.01282051 0.15064103 -3.01282051 0.15064103 0 0 Z " fill="#F1F1F1" transform="translate(387.5,217.875)"/>
<path d="M0 0 C6.67308864 3.43386019 10.64890153 8.94670458 13 16 C13.51928009 22.83053038 13.79418799 29.11246691 10 35 C7.4375 36.0625 7.4375 36.0625 5 36 C4.34 35.34 3.68 34.68 3 34 C3.28647533 31.66045145 3.63049535 29.32787927 4 27 C4.52411483 21.59685257 4.44767688 17.1468677 1.39453125 12.5078125 C-2.1555486 8.66935081 -6.38620151 7.14408915 -11.5 6.6875 C-14.14196775 6.92338998 -16.74721896 7.21649324 -19.375 7.5625 C-21.169375 7.7790625 -21.169375 7.7790625 -23 8 C-24 7 -24 7 -24.0625 3.9375 C-24.041875 2.968125 -24.02125 1.99875 -24 1 C-16.78156564 -3.55901117 -7.80237036 -3.10469321 0 0 Z " fill="#F3F3F3" transform="translate(418,208)"/>
<path d="M0 0 C0.33 0 0.66 0 1 0 C1 8.91 1 17.82 1 27 C-1.97 27 -4.94 27 -8 27 C-8 26.34 -8 25.68 -8 25 C-9.010625 25.495 -10.02125 25.99 -11.0625 26.5 C-15.71953045 28.48511803 -19.74284148 28.47242853 -24.6875 27.4375 C-28.03658012 25.35563939 -29.6387332 22.60335329 -31 19 C-31.58808123 14.7364111 -31.4946215 12.81259246 -29.25 9.125 C-27.03839103 7.03625819 -25.97249386 6.31848149 -23 6 C-23 9 -23 9 -25 12 C-24.01 12 -23.02 12 -22 12 C-21.67 11.34 -21.34 10.68 -21 10 C-20.34 10.33 -19.68 10.66 -19 11 C-17.12620395 11.07033769 -15.24998898 11.0843022 -13.375 11.0625 C-12.37210938 11.05347656 -11.36921875 11.04445312 -10.3359375 11.03515625 C-9.17964844 11.01775391 -9.17964844 11.01775391 -8 11 C-8.03480469 11.75925781 -8.06960937 12.51851562 -8.10546875 13.30078125 C-8.13253906 14.29464844 -8.15960938 15.28851563 -8.1875 16.3125 C-8.22230469 17.29863281 -8.25710937 18.28476563 -8.29296875 19.30078125 C-8.21278287 21.98127516 -8.21278287 21.98127516 -6.80078125 23.79296875 C-4.64837149 25.4023103 -4.64837149 25.4023103 0 26 C0 17.42 0 8.84 0 0 Z " fill="#E4E4E4" transform="translate(123,227)"/>
<path d="M0 0 C2.5625 0.1875 2.5625 0.1875 4.5625 2.1875 C4.81646729 4.08496094 4.81646729 4.08496094 4.82128906 6.421875 C4.82759338 7.29618164 4.83389771 8.17048828 4.84039307 9.07128906 C4.8363446 10.01713867 4.83229614 10.96298828 4.828125 11.9375 C4.83003845 12.90655273 4.8319519 13.87560547 4.83392334 14.87402344 C4.83528579 16.92513285 4.83158518 18.97625086 4.82324219 21.02734375 C4.81254359 24.17467539 4.82313554 27.3214362 4.8359375 30.46875 C4.83461592 32.4583346 4.83205355 34.44791884 4.828125 36.4375 C4.83217346 37.38334961 4.83622192 38.32919922 4.84039307 39.30371094 C4.83408875 40.17801758 4.82778442 41.05232422 4.82128906 41.953125 C4.81890228 43.10989746 4.81890228 43.10989746 4.81646729 44.29003906 C4.5625 46.1875 4.5625 46.1875 2.5625 48.1875 C-1.99305556 47.63194444 -1.99305556 47.63194444 -3.4375 46.1875 C-3.53554851 44.7807478 -3.56548186 43.36914864 -3.56689453 41.95898438 C-3.57004669 41.06135376 -3.57319885 40.16372314 -3.57644653 39.2388916 C-3.5744223 38.26286987 -3.57239807 37.28684814 -3.5703125 36.28125 C-3.57126923 35.2862146 -3.57222595 34.2911792 -3.57321167 33.26599121 C-3.5738936 31.15763282 -3.57203844 29.04927235 -3.56787109 26.94091797 C-3.56252303 23.70144973 -3.56781567 20.46212015 -3.57421875 17.22265625 C-3.57355797 15.17968719 -3.57227681 13.13671822 -3.5703125 11.09375 C-3.57233673 10.11772827 -3.57436096 9.14170654 -3.57644653 8.1361084 C-3.57329437 7.23847778 -3.57014221 6.34084717 -3.56689453 5.41601562 C-3.56609894 4.62183228 -3.56530334 3.82764893 -3.56448364 3.00939941 C-3.36606447 0.16257787 -2.85047713 0.21926747 0 0 Z " fill="#F8F8F8" transform="translate(313.4375,206.8125)"/>
<path d="M0 0 C2.89882247 2.06138486 4.59875561 3.66333924 5.63671875 7.12109375 C6.43519831 12.2124742 6.08392315 15.68250759 3 20 C0.15739513 22.38164192 -1.28405267 23 -5 23 C-8.94099261 21.6863358 -10.54532228 20.36641516 -13 17 C-14.34257344 12.52750075 -14.3515182 9.05455459 -12.875 4.625 C-9.28414253 -0.40220046 -5.98269225 -1.99423075 0 0 Z " fill="#090909" transform="translate(150,225)"/>
<path d="M0 0 C1.4540625 0.0309375 1.4540625 0.0309375 2.9375 0.0625 C3.2675 1.0525 3.5975 2.0425 3.9375 3.0625 C4.515 3.35125 5.0925 3.64 5.6875 3.9375 C8.72975245 5.45862622 10.67592507 7.54963896 12.9375 10.0625 C12.9375 10.7225 12.9375 11.3825 12.9375 12.0625 C13.9275 12.3925 14.9175 12.7225 15.9375 13.0625 C17.30945574 14.35605827 18.64932656 15.68548702 19.9375 17.0625 C20.515 16.7325 21.0925 16.4025 21.6875 16.0625 C23.9375 15.0625 23.9375 15.0625 27.9375 15.0625 C27.6075 15.660625 27.2775 16.25875 26.9375 16.875 C25.72962012 19.11636471 25.72962012 19.11636471 25.9375 22.0625 C26.5975 22.3925 27.2575 22.7225 27.9375 23.0625 C23.68732431 27.91984364 23.68732431 27.91984364 20.59301758 28.50854492 C16.82578392 27.87576604 15.32914098 26.10124715 12.63671875 23.42578125 C12.1554805 22.94932663 11.67424225 22.47287201 11.17842102 21.98197937 C10.16642022 20.97337423 9.16067918 19.95845414 8.16088867 18.93774414 C6.6298669 17.379952 5.07401209 15.85062661 3.51367188 14.32226562 C2.53224704 13.33753663 1.55237442 12.35125766 0.57421875 11.36328125 C-0.31563721 10.46778564 -1.20549316 9.57229004 -2.12231445 8.6496582 C-4.0625 6.0625 -4.0625 6.0625 -4.41479492 3.29370117 C-3.86994658 -0.15700497 -3.6140557 0.07375624 0 0 Z " fill="#F4F4F4" transform="translate(256.0625,206.9375)"/>
<path d="M0 0 C2.97 0 5.94 0 9 0 C9 11.88 9 23.76 9 36 C6.03 36 3.06 36 0 36 C0 24.12 0 12.24 0 0 Z " fill="#DFDFDF" transform="translate(225,218)"/>
<path d="M0 0 C2.64 0 5.28 0 8 0 C8 11.55 8 23.1 8 35 C5.36 35 2.72 35 0 35 C0 23.45 0 11.9 0 0 Z " fill="#FBFBFB" transform="translate(79,219)"/>
<path d="M0 0 C2.31 0.33 4.62 0.66 7 1 C7.0578304 5.45827926 7.09353855 9.9164628 7.125 14.375 C7.14175781 15.64601562 7.15851563 16.91703125 7.17578125 18.2265625 C7.18222656 19.43828125 7.18867188 20.65 7.1953125 21.8984375 C7.20578613 23.01911621 7.21625977 24.13979492 7.22705078 25.29443359 C7 28 7 28 5 30 C0.44444444 29.44444444 0.44444444 29.44444444 -1 28 C-1.09974389 26.09715013 -1.1308063 24.19061747 -1.1328125 22.28515625 C-1.13410156 21.12435547 -1.13539063 19.96355469 -1.13671875 18.76757812 C-1.13091797 16.93356445 -1.13091797 16.93356445 -1.125 15.0625 C-1.13080078 13.23428711 -1.13080078 13.23428711 -1.13671875 11.36914062 C-1.13542969 10.20705078 -1.13414062 9.04496094 -1.1328125 7.84765625 C-1.13168457 6.77523682 -1.13055664 5.70281738 -1.12939453 4.59790039 C-1 2 -1 2 0 0 Z " fill="#FBFBFB" transform="translate(253,225)"/>
<path d="M0 0 C0.02891546 4.45831982 0.04676981 8.91661569 0.0625 13.375 C0.07087891 14.64601562 0.07925781 15.91703125 0.08789062 17.2265625 C0.09111328 18.43828125 0.09433594 19.65 0.09765625 20.8984375 C0.10289307 22.01911621 0.10812988 23.13979492 0.11352539 24.29443359 C0 27 0 27 -1 29 C-3.375 29.1875 -3.375 29.1875 -6 29 C-8.32891212 25.50663182 -8.23551143 24.13992135 -8.1953125 20.01953125 C-8.18886719 18.85615234 -8.18242187 17.69277344 -8.17578125 16.49414062 C-8.15902344 15.27919922 -8.14226562 14.06425781 -8.125 12.8125 C-8.11597656 11.58595703 -8.10695313 10.35941406 -8.09765625 9.09570312 C-8.07406017 6.06360705 -8.04113841 3.03190062 -8 0 C-5.13822943 -1.43088528 -3.06624227 -0.59991697 0 0 Z " fill="#F9F9F9" transform="translate(334,226)"/>
<path d="M0 0 C0.33 1.65 0.66 3.3 1 5 C0.01 5.33 -0.98 5.66 -2 6 C-2.33 6.66 -2.66 7.32 -3 8 C-4.010625 7.938125 -5.02125 7.87625 -6.0625 7.8125 C-10.55499372 8.02642827 -13.01085961 9.04613532 -17 11 C-18.27839167 8.89441372 -18.98731787 7.41851016 -19.0625 4.9375 C-17.66807298 2.39472131 -15.91306983 1.55436935 -13.25390625 0.52734375 C-8.88917168 -0.49386798 -4.45061704 -0.21729957 0 0 Z " fill="#EFEFEF" transform="translate(114,217)"/>
<path d="M0 0 C3.16736896 -0.59388168 5.8469254 -0.73361212 9 0 C12.20559249 2.60553084 14.72045078 5.5589366 17 9 C17 9.66 17 10.32 17 11 C16.34 11.66 15.68 12.32 15 13 C15 13.66 15 14.32 15 15 C14.34 15 13.68 15 13 15 C12.67 15.66 12.34 16.32 12 17 C9.33333333 13.66666667 6.66666667 10.33333333 4 7 C2.87851562 5.66001953 2.87851562 5.66001953 1.734375 4.29296875 C0 2 0 2 0 0 Z " fill="#F1F1F1" transform="translate(30,209)"/>
<path d="M0 0 C0.99386719 0.02707031 1.98773438 0.05414063 3.01171875 0.08203125 C4.15060547 0.13423828 4.15060547 0.13423828 5.3125 0.1875 C4.71851504 5.53336466 4.71851504 5.53336466 3.1875 8 C0.25975831 9.8542364 -2.25930074 10.06721231 -5.6875 10.1875 C-8.125 8.75 -8.125 8.75 -9.6875 7.1875 C-8.63991038 1.11148022 -5.96528596 -0.2105395 0 0 Z " fill="#0E0E0E" transform="translate(109.6875,237.8125)"/>
<path d="M0 0 C2.4375 1.25 2.4375 1.25 4 3 C4 4.32 4 5.64 4 7 C-1.28 7.66 -6.56 8.32 -12 9 C-11.67 8.01 -11.34 7.02 -11 6 C-11.66 5.67 -12.32 5.34 -13 5 C-13 4.34 -13 3.68 -13 3 C-8.47075673 0.34873564 -5.24957258 -0.58328584 0 0 Z " fill="#0E0E0E" transform="translate(111,224)"/>
<path d="M0 0 C0.33 0 0.66 0 1 0 C1 11.55 1 23.1 1 35 C0.67 35 0.34 35 0 35 C-0.33 31.37 -0.66 27.74 -1 24 C-2.65 24.99 -4.3 25.98 -6 27 C-5.83628906 26.30519531 -5.67257813 25.61039063 -5.50390625 24.89453125 C-4.95904004 21.7647184 -4.90261517 18.86201917 -4.9375 15.6875 C-4.94652344 14.61886719 -4.95554688 13.55023438 -4.96484375 12.44921875 C-4.97644531 11.64097656 -4.98804688 10.83273438 -5 10 C-4.01 9.67 -3.02 9.34 -2 9 C-1.34 9.33 -0.68 9.66 0 10 C0 6.7 0 3.4 0 0 Z " fill="#131313" transform="translate(168,219)"/>
<path d="M0 0 C2.5 0.25 2.5 0.25 4.5 2.25 C4.75 5.25 4.75 5.25 4.5 8.25 C2.5 10.25 2.5 10.25 -0.5 10.5625 C-1.49 10.459375 -2.48 10.35625 -3.5 10.25 C-5.5 7.25 -5.5 7.25 -5.25 4.6875 C-4.24098289 1.40819438 -3.4742892 0.34742892 0 0 Z " fill="#ECECEC" transform="translate(229.5,203.75)"/>
<path d="M0 0 C2.33944736 0.28730055 4.6739143 0.61936779 7 1 C7.625 3.8125 7.625 3.8125 8 7 C7.01 8.485 7.01 8.485 6 10 C3 10.3125 3 10.3125 0 10 C-0.66 9.34 -1.32 8.68 -2 8 C-1.42307692 1.42307692 -1.42307692 1.42307692 0 0 Z " fill="#F0F0F0" transform="translate(80,204)"/>
<path d="M0 0 C3.17971131 1.37557076 5.04850989 2.89958646 7.25 5.5625 C7.77078125 6.18253906 8.2915625 6.80257812 8.828125 7.44140625 C10 9 10 9 10 10 C6.29207191 10.28328822 2.69795687 10.45269973 -1 10 C-3.26297338 7.54305747 -4 6.3203746 -4 3 C-3.34 3 -2.68 3 -2 3 C-1.67 2.34 -1.34 1.68 -1 1 C-1 1.66 -1 2.32 -1 3 C-0.34 3 0.32 3 1 3 C0.67 2.01 0.34 1.02 0 0 Z " fill="#EBEBEB" transform="translate(65,244)"/>
<path d="M0 0 C0.33 0.99 0.66 1.98 1 3 C0.01 3.33 -0.98 3.66 -2 4 C-1.34 2.68 -0.68 1.36 0 0 Z M-3 4 C-2.34 4.66 -1.68 5.32 -1 6 C-1.99 6.66 -2.98 7.32 -4 8 C-2.68 9.32 -1.36 10.64 0 12 C-0.66 13.32 -1.32 14.64 -2 16 C-5.3 16 -8.6 16 -12 16 C-9.53974941 11.48954059 -6.39717963 7.81495577 -3 4 Z " fill="#EBEBEB" transform="translate(41,238)"/>
<path d="M0 0 C3.03336186 -0.22893297 5.97465051 -0.36475845 9 0 C11.0625 2 11.0625 2 12 4 C10.35 4.66 8.7 5.32 7 6 C7 6.66 7 7.32 7 8 C3.64379729 6.61122646 1.92701272 5.08322035 0 2 C0 1.34 0 0.68 0 0 Z " fill="#DCDCDC" transform="translate(30,209)"/>
<path d="M0 0 C0 10.23 0 20.46 0 31 C-0.33 31 -0.66 31 -1 31 C-1.33 22.09 -1.66 13.18 -2 4 C-2.66 5.32 -3.32 6.64 -4 8 C-4.99 8.66 -5.98 9.32 -7 10 C-7.99 9.67 -8.98 9.34 -10 9 C-8.52386015 7.49702124 -7.04400843 5.99768715 -5.5625 4.5 C-4.73878906 3.6646875 -3.91507812 2.829375 -3.06640625 1.96875 C-1 0 -1 0 0 0 Z " fill="#212121" transform="translate(293,221)"/>
<path d="M0 0 C0.99 0.495 0.99 0.495 2 1 C2 7.6 2 14.2 2 21 C4.475 21.99 4.475 21.99 7 23 C7 23.66 7 24.32 7 25 C4.625 25.1875 4.625 25.1875 2 25 C-0.20192224 21.69711664 -0.23959968 20.72537273 -0.1953125 16.89453125 C-0.18886719 15.91162109 -0.18242187 14.92871094 -0.17578125 13.91601562 C-0.15902344 12.89185547 -0.14226562 11.86769531 -0.125 10.8125 C-0.11597656 9.77673828 -0.10695313 8.74097656 -0.09765625 7.67382812 C-0.0740786 5.11565315 -0.0411703 2.55794252 0 0 Z " fill="#E1E1E1" transform="translate(326,230)"/>
<path d="M0 0 C1.17539996 0.92652701 2.34010577 1.86663387 3.5 2.8125 C4.1496875 3.33457031 4.799375 3.85664063 5.46875 4.39453125 C7 6 7 6 7 9 C6.34 9 5.68 9 5 9 C4.34 8.01 3.68 7.02 3 6 C1.68 6 0.36 6 -1 6 C-1 5.34 -1 4.68 -1 4 C-1.66 3.67 -2.32 3.34 -3 3 C-2.01 2.01 -1.02 1.02 0 0 Z " fill="#101010" transform="translate(261,222)"/>
<path d="M0 0 C0.125 2.375 0.125 2.375 0 5 C-0.66 5.66 -1.32 6.32 -2 7 C-4.625 6.625 -4.625 6.625 -7 6 C-7 5.01 -7 4.02 -7 3 C-1.125 0 -1.125 0 0 0 Z " fill="#F1F1F1" transform="translate(260,248)"/>
<path d="M0 0 C0.66 0.33 1.32 0.66 2 1 C0.68 2.65 -0.64 4.3 -2 6 C-1.34 6 -0.68 6 0 6 C-0.33 6.66 -0.66 7.32 -1 8 C-1.598125 8.103125 -2.19625 8.20625 -2.8125 8.3125 C-5.96707605 9.30393819 -7.11673632 11.37688273 -9 14 C-9.66 13.67 -10.32 13.34 -11 13 C-7.37 8.71 -3.74 4.42 0 0 Z " fill="#1A1A1A" transform="translate(72,212)"/>
<path d="M0 0 C1.4540625 0.0309375 1.4540625 0.0309375 2.9375 0.0625 C3.2675 1.3825 3.5975 2.7025 3.9375 4.0625 C2.6175 4.0625 1.2975 4.0625 -0.0625 4.0625 C-0.0625 4.7225 -0.0625 5.3825 -0.0625 6.0625 C-1.0525 6.3925 -2.0425 6.7225 -3.0625 7.0625 C-4.0625 6.0625 -4.0625 6.0625 -4.1875 3.5625 C-4.00295237 -0.12845252 -3.76342282 0.07680455 0 0 Z " fill="#E8E8E8" transform="translate(256.0625,206.9375)"/>
<path d="M0 0 C0.598125 0.309375 1.19625 0.61875 1.8125 0.9375 C4.08956772 2.10209704 4.08956772 2.10209704 7 3 C7 3.66 7 4.32 7 5 C3.7 5 0.4 5 -3 5 C-2.01 3.35 -1.02 1.7 0 0 Z " fill="#DFDFDF" transform="translate(32,249)"/>
<path d="M0 0 C1.32 0.66 2.64 1.32 4 2 C4 2.99 4 3.98 4 5 C2.125 6.0625 2.125 6.0625 0 7 C-0.66 6.67 -1.32 6.34 -2 6 C-1.125 1.125 -1.125 1.125 0 0 Z " fill="#0A0A0A" transform="translate(90,233)"/>
<path d="M0 0 C3.465 1.98 3.465 1.98 7 4 C4 6 4 6 1 6 C0.67 6.99 0.34 7.98 0 9 C-0.99 8.34 -1.98 7.68 -3 7 C-2.505 6.401875 -2.01 5.80375 -1.5 5.1875 C0.28276418 3.02970006 0.28276418 3.02970006 0 0 Z " fill="#E8E8E8" transform="translate(418,209)"/>
<path d="M0 0 C2 3 2 3 3 5 C2.01 6.485 2.01 6.485 1 8 C1 7.34 1 6.68 1 6 C-0.98 6 -2.96 6 -5 6 C-4.67 5.34 -4.34 4.68 -4 4 C-4.66 3.34 -5.32 2.68 -6 2 C-4.02 1.34 -2.04 0.68 0 0 Z " fill="#1A1A1A" transform="translate(233,212)"/>
<path d="M0 0 C5.875 4.625 5.875 4.625 7 8 C6.01 8.33 5.02 8.66 4 9 C0.06153846 5.67692308 0.06153846 5.67692308 -0.25 2.25 C-0.1675 1.5075 -0.085 0.765 0 0 Z " fill="#171717" transform="translate(332,218)"/>
<path d="M0 0 C1.32 0.33 2.64 0.66 4 1 C4 2.32 4 3.64 4 5 C2.02 5 0.04 5 -2 5 C-1.34 3.35 -0.68 1.7 0 0 Z " fill="#F8F8F8" transform="translate(228,209)"/>
<path d="M0 0 C0.99 0 1.98 0 3 0 C3.66 0 4.32 0 5 0 C5 2 5 2 3.625 3.625 C2 5 2 5 0 5 C-1.02196992 4.02246356 -2.01979625 3.0194119 -3 2 C-3.99 1.34 -4.98 0.68 -6 0 C-2.25 -1.125 -2.25 -1.125 0 0 Z " fill="#151515" transform="translate(195,217)"/>
<path d="M0 0 C0.66 0.33 1.32 0.66 2 1 C2 1.66 2 2.32 2 3 C2.66 3.33 3.32 3.66 4 4 C2.35 5.32 0.7 6.64 -1 8 C-1.625 5.6875 -1.625 5.6875 -2 3 C-1.34 2.01 -0.68 1.02 0 0 Z " fill="#101010" transform="translate(386,246)"/>
<path d="M0 0 C0.99 1.32 1.98 2.64 3 4 C2.01 4.33 1.02 4.66 0 5 C-0.99 6.485 -0.99 6.485 -2 8 C-2.66 6.68 -3.32 5.36 -4 4 C-2.68 2.68 -1.36 1.36 0 0 Z " fill="#141414" transform="translate(429,240)"/>
<path d="M0 0 C0.66 0.33 1.32 0.66 2 1 C0.63016497 4.16115776 0.0109362 4.9927092 -3 7 C-3.99 6.67 -4.98 6.34 -6 6 C-4.02 4.02 -2.04 2.04 0 0 Z " fill="#181818" transform="translate(289,224)"/>
<path d="M0 0 C0.99 0.33 1.98 0.66 3 1 C2.01 1 1.02 1 0 1 C0 0.67 0 0.34 0 0 Z M-2 2 C-1.01 2.33 -0.02 2.66 1 3 C1.6875 5.0625 1.6875 5.0625 2 7 C0.35 6.67 -1.3 6.34 -3 6 C-2.67 4.68 -2.34 3.36 -2 2 Z " fill="#FAFAFA" transform="translate(421,213)"/>
<path d="M0 0 C0.66 0 1.32 0 2 0 C2 1.65 2 3.3 2 5 C0.35 5.33 -1.3 5.66 -3 6 C-2.01 4.02 -1.02 2.04 0 0 Z " fill="#F0F0F0" transform="translate(315,249)"/>
</svg>
